# xmcd
#
# Track frame offsets:
#	150
#	13077
#	26612
#	38791
#	51611
#	69552
#	81016
#	94602
#	108070
#	123689
#	137230
#	151748
#	165974
#	181370
#	197996
#	213819
#	226631
#	241635
#
# Disc length: 3393 seconds
#
# Revision: 0
# Processed by: cddbd v1.5.2PL0 Copyright (c) Steve Scherf et al.
# Submitted via: dBpowerAMP V4.0
#
DISCID=e10d3f12
DTITLE=Eduardo Costa - Xd
DYEAR=1995
DGENRE=Bass
TTITLE0=wq
TTITLE1=2ij
TTITLE2=eq
TTITLE3=qwd
TTITLE4=qe
TTITLE5=dsa
TTITLE6=221
TTITLE7=123
TTITLE8=312
TTITLE9=231
TTITLE10=4123
TTITLE11=1234
TTITLE12=3123
TTITLE13=412
TTITLE14=312
TTITLE15=4221
TTITLE16=4444
TTITLE17=1111
EXTD=ijnoiu
EXTT0=
EXTT1=
EXTT2=
EXTT3=
EXTT4=
EXTT5=
EXTT6=
EXTT7=
EXTT8=
EXTT9=
EXTT10=
EXTT11=
EXTT12=
EXTT13=
EXTT14=
EXTT15=
EXTT16=
EXTT17=
PLAYORDER=
